<?xml version="1.0" standalone="no"?><!DOCTYPE svg PUBLIC "-//W3C//DTD SVG 1.1//EN" "http://www.w3.org/Graphics/SVG/1.1/DTD/svg11.dtd"><svg class="icon" height="512" viewBox="0 0 1024 1024" version="1.1" xmlns="http://www.w3.org/2000/svg"><path d="M781.226667 680.490667c-48.554667-56.021333-115.285333-93.994667-189.781334-109.909334-3.285333-1.152-6.613333-2.432-9.898666-3.413333-3.072-1.066667-22.698667-9.898667-10.453334-47.189333h-0.128c31.914667-32.896 56.32-85.845333 56.32-137.898667 0-80.213333-53.333333-122.197333-115.242666-122.197333-61.994667 0-114.986667 41.984-114.986667 122.197333 0 52.352 24.277333 105.514667 56.405333 138.282667 12.458667 32.896-9.898667 45.056-14.549333 46.805333a237.653333 237.653333 0 0 0-14.805333 5.674667c-71.082667 16.896-134.656 53.845333-181.333334 107.648a32.853333 32.853333 0 0 0-5.077333 35.242666 32.853333 32.853333 0 0 0 29.994667 19.328h488.661333a32.938667 32.938667 0 0 0 24.874667-54.570666z"  /><path d="M512 978.261333C254.933333 978.261333 45.781333 769.066667 45.781333 512 45.781333 254.933333 254.933333 45.781333 512 45.781333S978.261333 254.933333 978.261333 512c0 257.066667-209.194667 466.261333-466.261333 466.261333z m0-868.48c-221.781333 0-402.218667 180.437333-402.218667 402.218667S290.218667 914.261333 512 914.261333s402.261333-180.48 402.261333-402.261333S733.781333 109.781333 512 109.781333z"  /></svg>